Coordinates
version=1
nRows=4
nColumns=63
inDegrees=yes

Units are S.I. units (second, meters, Newtons, ...)
If the header above contains a line with 'inDegrees', this indicates whether rotational values are in degrees (yes) or radians (no).

endheader
time	pelvis_tilt	pelvis_list	pelvis_rotation	pelvis_tx	pelvis_ty	pelvis_tz	hip_flexion_r	hip_adduction_r	hip_rotation_r	knee_angle_r	knee_angle_r_beta	ankle_angle_r	subtalar_angle_r	mtp_angle_r	hip_flexion_l	hip_adduction_l	hip_rotation_l	knee_angle_l	knee_angle_l_beta	ankle_angle_l	subtalar_angle_l	mtp_angle_l	L5_S1_Flex_Ext	L5_S1_Lat_Bending	L5_S1_axial_rotation	L4_L5_Flex_Ext	L4_L5_Lat_Bending	L4_L5_axial_rotation	L3_L4_Flex_Ext	L3_L4_Lat_Bending	L3_L4_axial_rotation	L2_L3_Flex_Ext	L2_L3_Lat_Bending	L2_L3_axial_rotation	L1_L2_Flex_Ext	L1_L2_Lat_Bending	L1_L2_axial_rotation	L1_T12_Flex_Ext	L1_T12_Lat_Bending	L1_T12_axial_rotation	Abs_r3	Abs_r2	Abs_r1	Abs_t1	Abs_t2	neck_flexion	neck_bending	neck_rotation	arm_flex_r	arm_add_r	arm_rot_r	elbow_flex_r	pro_sup_r	wrist_flex_r	wrist_dev_r	arm_flex_l	arm_add_l	arm_rot_l	elbow_flex_l	pro_sup_l	wrist_flex_l	wrist_dev_l
      3.95121951	      4.71285097	     -5.85151486	    105.00222364	      0.19033568	      0.38655842	      0.61071780	     -2.57900048	      1.70256337	    -33.54203597	     11.07502603	      0.19329567	     26.56830419	     12.32836260	      0.00000000	     -6.83012185	     -6.64846940	    -13.15494055	      2.67553594	      0.04669691	     30.09879780	     13.65445945	      0.00000000	      0.02309134	      0.61658158	     -0.04407922	      0.04288292	      0.82005350	     -0.04683417	      0.03793676	      1.49915645	     -0.04683417	      0.02639109	      1.49915645	     -0.03856932	      0.02144261	      1.25733315	     -0.03581437	      0.01319439	      0.95508487	     -0.03305942	      0.16493910	      6.97489413	     -0.24515540	      0.00000000	      0.00000000	     14.79980340	      1.62776260	      1.47965853	     -6.85275644	    -13.01705331	     -8.31819731	    127.99795074	     86.73214489	    -16.65027820	    -13.35324524	      7.64015886	     -7.75246242	      2.47461465	    129.71714330	     81.23080541	    -14.76526538	     10.45563982
      3.97560976	      4.93596482	     -5.49755969	    105.05787073	      0.18979998	      0.38653048	      0.61022361	     -2.93560061	      2.01778345	    -33.85210580	     10.87590148	      0.18982029	     27.02331254	     12.87328586	      0.00000000	     -7.10515414	     -6.99132936	    -12.79458513	      2.89436168	      0.05051614	     30.50116818	     13.36503297	      0.00000000	     -0.01543383	      0.66187048	     -0.02921948	     -0.02866217	      0.88028774	     -0.03104570	     -0.02535624	      1.60927189	     -0.03104570	     -0.01763933	      1.60927189	     -0.02556704	     -0.01433186	      1.34968629	     -0.02374083	     -0.00881889	      1.02523738	     -0.02191461	     -0.11024232	      7.48721126	     -0.16250997	      0.00000000	      0.00000000	     16.19030114	      1.72000878	      1.24127185	     -7.27973324	    -13.25840812	     -8.89976322	    128.93175989	     86.12953772	    -17.07368324	    -11.04113292	      7.57167391	     -7.82414106	      3.26005464	    129.67568631	     82.19371201	    -14.99630291	      8.67297163
      4.00000000	      5.13837527	     -5.34333620	    105.01842304	      0.18961444	      0.38620095	      0.60928046	     -3.06686271	      2.29730157	    -33.58754259	     10.62949894	      0.18551975	     28.04891347	     13.21466727	      0.00000000	     -7.26406354	     -7.26737038	    -12.81741084	      3.04057819	      0.05306810	     30.57717018	     13.23479844	      0.00000000	     -0.01974563	      0.69550664	     -0.04118895	     -0.03666961	      0.92502383	     -0.04376325	     -0.03244009	      1.69105484	     -0.04376325	     -0.02256728	      1.69105484	     -0.03604033	     -0.01833579	      1.41827714	     -0.03346602	     -0.01128265	      1.07733979	     -0.03089171	     -0.14104106	      7.86771021	     -0.22908056	      0.00000000	      0.00000000	     17.19510720	      1.78592016	      1.25457599	     -7.77729634	    -13.29728104	     -9.06538679	    129.51256792	     86.07914743	    -16.99075631	    -10.87859190	      7.03494007	     -8.02755967	      3.59142593	    130.35654486	     82.63282801	    -14.89688171	      8.24989893
      4.02439024	      5.55355868	     -4.97911051	    104.79778910	      0.18913071	      0.38620247	      0.60816612	     -3.40083620	      2.79835025	    -33.52618983	     10.33333474	      0.18035071	     28.73789276	     13.95055302	      0.00000000	     -7.55189737	     -7.79553882	    -13.08875341	      3.42017313	      0.05969328	     30.65577494	     12.88681306	      0.00000000	     -0.04324187	      0.77030757	      0.03282186	     -0.08030448	      1.02450907	      0.03487322	     -0.07104207	      1.87292583	      0.03487322	     -0.04942113	      1.87292583	      0.02871912	     -0.04015440	      1.57081120	      0.02666776	     -0.02470841	      1.19320643	      0.02461639	     -0.30887236	      8.71387331	      0.18254532	      0.00000000	      0.00000000	     17.49108287	      1.31123917	      1.37302610	     -8.54631722	    -13.48022489	     -9.65340485	    130.52574900	     86.14500702	    -16.50926467	     -9.61859345	      6.56490590	     -8.03264346	      4.12713033	    130.74173886	     84.90971086	    -14.84426432	      7.01636518
